<?xml version="1.0" encoding="UTF-8" standalone="no"?><!DOCTYPE svg PUBLIC "-//W3C//DTD SVG 1.1//EN" "http://www.w3.org/Graphics/SVG/1.1/DTD/svg11.dtd"><svg width="100%" height="100%" viewBox="0 0 91 171" version="1.1" xmlns="http://www.w3.org/2000/svg" xmlns:xlink="http://www.w3.org/1999/xlink" xml:space="preserve" xmlns:serif="http://www.serif.com/" style="fill-rule:evenodd;clip-rule:evenodd;stroke-linecap:round;stroke-linejoin:round;stroke-miterlimit:1.5;"><g><rect x="0.5" y="0.5" width="10" height="10" style="fill:#0056ff;fill-opacity:0;stroke:#0056fe;stroke-width:1px;"/><rect x="20.5" y="0.5" width="10" height="10" style="fill:#0056ff;fill-opacity:0;stroke:#0056fe;stroke-width:1px;"/><rect x="40.5" y="0.5" width="10" height="10" style="fill:#0056ff;fill-opacity:0;stroke:#0056fe;stroke-width:1px;"/><rect x="60.5" y="0.5" width="10" height="10" style="fill:#0056ff;fill-opacity:0;stroke:#0056fe;stroke-width:1px;"/><rect x="80.5" y="0.5" width="10" height="10" style="fill:#0056ff;fill-opacity:0;stroke:#0056fe;stroke-width:1px;"/><rect x="0.5" y="20.5" width="10" height="10" style="fill:#0056ff;fill-opacity:0;stroke:#0056fe;stroke-width:1px;"/><rect x="0.5" y="20.5" width="10" height="10" style="fill:#0056ff;fill-opacity:0;stroke:#0056fe;stroke-width:1px;"/><rect x="20.5" y="20.5" width="10" height="10" style="fill:#0056ff;fill-opacity:0;stroke:#0056fe;stroke-width:1px;"/><rect x="20.5" y="20.5" width="10" height="10" style="fill:#0056ff;fill-opacity:0;stroke:#0056fe;stroke-width:1px;"/><rect x="40.5" y="20.5" width="10" height="10" style="fill:#0056ff;fill-opacity:0;stroke:#0056fe;stroke-width:1px;"/><rect x="40.5" y="20.5" width="10" height="10" style="fill:#0056ff;fill-opacity:0;stroke:#0056fe;stroke-width:1px;"/><rect x="60.5" y="20.5" width="10" height="10" style="fill:#0056ff;fill-opacity:0;stroke:#0056fe;stroke-width:1px;"/><rect x="60.5" y="20.5" width="10" height="10" style="fill:#0056ff;fill-opacity:0;stroke:#0056fe;stroke-width:1px;"/><rect x="80.5" y="20.5" width="10" height="10" style="fill:#0056ff;fill-opacity:0;stroke:#0056fe;stroke-width:1px;"/><rect x="0.5" y="40.5" width="10" height="10" style="fill:#0056ff;fill-opacity:0;stroke:#0056fe;stroke-width:1px;"/><rect x="20.5" y="40.5" width="10" height="10" style="fill:#0056ff;fill-opacity:0;stroke:#0056fe;stroke-width:1px;"/><rect x="40.5" y="40.5" width="10" height="10" style="fill:#0056ff;fill-opacity:0;stroke:#0056fe;stroke-width:1px;"/><rect x="60.5" y="40.5" width="10" height="10" style="fill:#0056ff;fill-opacity:0;stroke:#0056fe;stroke-width:1px;"/><rect x="80.5" y="40.5" width="10" height="10" style="fill:#0056ff;fill-opacity:0;stroke:#0056fe;stroke-width:1px;"/><rect x="0.5" y="60.5" width="10" height="10" style="fill:#0056ff;fill-opacity:0;stroke:#0056fe;stroke-width:1px;"/><rect x="20.5" y="60.5" width="10" height="10" style="fill:#0056ff;fill-opacity:0;stroke:#0056fe;stroke-width:1px;"/><rect x="40.5" y="60.5" width="10" height="10" style="fill:#0056ff;fill-opacity:0;stroke:#0056fe;stroke-width:1px;"/><rect x="60.5" y="60.5" width="10" height="10" style="fill:#0056ff;fill-opacity:0;stroke:#0056fe;stroke-width:1px;"/><rect x="80.5" y="60.5" width="10" height="10" style="fill:#0056ff;fill-opacity:0;stroke:#0056fe;stroke-width:1px;"/><rect x="0.5" y="80.5" width="10" height="10" style="fill:#0056ff;fill-opacity:0;stroke:#0056fe;stroke-width:1px;"/><rect x="20.5" y="80.5" width="10" height="10" style="fill:#0056ff;fill-opacity:0;stroke:#0056fe;stroke-width:1px;"/><rect x="40.5" y="80.5" width="10" height="10" style="fill:#0056ff;fill-opacity:0;stroke:#0056fe;stroke-width:1px;"/><rect x="60.5" y="80.5" width="10" height="10" style="fill:#0056ff;fill-opacity:0;stroke:#0056fe;stroke-width:1px;"/><rect x="80.5" y="80.5" width="10" height="10" style="fill:#0056ff;fill-opacity:0;stroke:#0056fe;stroke-width:1px;"/><rect x="0.5" y="100.5" width="10" height="10" style="fill:#0056ff;fill-opacity:0;stroke:#0056fe;stroke-width:1px;"/><rect x="20.5" y="100.5" width="10" height="10" style="fill:#0056ff;fill-opacity:0;stroke:#0056fe;stroke-width:1px;"/><rect x="40.5" y="100.5" width="10" height="10" style="fill:#0056ff;fill-opacity:0;stroke:#0056fe;stroke-width:1px;"/><rect x="60.5" y="100.5" width="10" height="10" style="fill:#0056ff;fill-opacity:0;stroke:#0056fe;stroke-width:1px;"/><rect x="80.5" y="100.5" width="10" height="10" style="fill:#0056ff;fill-opacity:0;stroke:#0056fe;stroke-width:1px;"/><rect x="0.5" y="120.5" width="10" height="10" style="fill:#0056ff;fill-opacity:0;stroke:#0056fe;stroke-width:1px;"/><rect x="20.5" y="120.5" width="10" height="10" style="fill:#0056ff;fill-opacity:0;stroke:#0056fe;stroke-width:1px;"/><rect x="40.5" y="120.5" width="10" height="10" style="fill:#0056ff;fill-opacity:0;stroke:#0056fe;stroke-width:1px;"/><rect x="60.5" y="120.5" width="10" height="10" style="fill:#0056ff;fill-opacity:0;stroke:#0056fe;stroke-width:1px;"/><rect x="80.5" y="120.5" width="10" height="10" style="fill:#0056ff;fill-opacity:0;stroke:#0056fe;stroke-width:1px;"/><rect x="0.5" y="140.5" width="10" height="10" style="fill:#0056ff;fill-opacity:0;stroke:#0056fe;stroke-width:1px;"/><rect x="20.5" y="140.5" width="10" height="10" style="fill:#0056ff;fill-opacity:0;stroke:#0056fe;stroke-width:1px;"/><rect x="40.5" y="140.5" width="10" height="10" style="fill:#0056ff;fill-opacity:0;stroke:#0056fe;stroke-width:1px;"/><rect x="60.5" y="140.5" width="10" height="10" style="fill:#0056ff;fill-opacity:0;stroke:#0056fe;stroke-width:1px;"/><rect x="80.5" y="140.5" width="10" height="10" style="fill:#0056ff;fill-opacity:0;stroke:#0056fe;stroke-width:1px;"/><rect x="0.5" y="160.5" width="10" height="10" style="fill:#0056ff;fill-opacity:0;stroke:#0056fe;stroke-width:1px;"/><rect x="20.5" y="160.5" width="10" height="10" style="fill:#0056ff;fill-opacity:0;stroke:#0056fe;stroke-width:1px;"/><rect x="40.5" y="160.5" width="10" height="10" style="fill:#0056ff;fill-opacity:0;stroke:#0056fe;stroke-width:1px;"/><rect x="60.5" y="160.5" width="10" height="10" style="fill:#0056ff;fill-opacity:0;stroke:#0056fe;stroke-width:1px;"/><rect x="80.5" y="160.5" width="10" height="10" style="fill:#0056ff;fill-opacity:0;stroke:#0056fe;stroke-width:1px;"/><rect x="80.5" y="20.5" width="10" height="10" style="fill:#0056ff;fill-opacity:0;stroke:#0056fe;stroke-width:1px;"/></g></svg>